{"title":"How I Met Your Mother S06E24 HDTV XviD [DwzRG]","uid":6401345,"size":183218301,"categoryP":"video","categoryS":"tv_shows","magnet":"?xt=urn:btih:526ce6fc41a0349bc20b11aff2d80bba500a35a2&amp;dn=How+I+Met+Your+Mother+S06E24+HDTV+XviD+%5BDwzRG%5D&amp;tr=udp%3A%2F%2Ftracker.openbittorrent.com%3A80&amp;tr=udp%3A%2F%2Fopen.demonii.com%3A1337&amp;tr=udp%3A%2F%2Ftracker.coppersurfer.tk%3A6969&amp;tr=udp%3A%2F%2Fexodus.desync.com%3A6969","seeders":1,"leechers":0,"uploader":"rahulro","files":3,"time":1305673153,"description":"More AT: &lt;a href=&quot; http://directwrz.com/&quot; rel=&quot;nofollow&quot; target=&quot;_NEW&quot;&gt; http://directwrz.com/&lt;/a&gt;\n\nShow: How I met your mother\nSeason: 6  Episode: 24\nReleased: 16th May 2011\nFilesize: 174.73 MB\n\nShow Summary: Barney and Robin reconnect when meddling in Ted's relationship while he's busy being a best man...\n\nGeneral:\nComplete name : How I Met Your Mother S06E24 HDTV XviD [DwzRG].avi \nFormat : AVI \nFormat/Info : Audio Video Interleave \nFile size : 175 MiB \nDuration : 21mn 22s \nOverall bit rate : 1 143 Kbps \nWriting application : VirtualDubMod 1.5.10.2 (build 2540/release) \nWriting library : VirtualDubMod build 2540/release \n\nVideo:\nID : 0 \nFormat : MPEG-4 Visual \nFormat profile : Advanced Simple@L5 \nFormat settings, BVOP : 2 \nFormat settings, QPel : No \nFormat settings, GMC : No warppoints \nFormat settings, Matrix : Default (H.263) \nCodec ID : XVID \nCodec ID/Hint : XviD \nDuration : 21mn 22s \nBit rate : 999 Kbps \nWidth : 624 pixels \nHeight : 352 pixels \nDisplay aspect ratio : 16:9 \nFrame rate : 23.976 fps \nColor space : YUV \nChroma subsampling : 4:2:0 \nBit depth : 8 bits \nScan type : Progressive \nCompression mode : Lossy \nBits/(Pixel*Frame) : 0.190 \nStream size : 153 MiB (87%) \n\nAudio:\nID : 1 \nFormat : MPEG Audio \nFormat version : Version 1 \nFormat profile : Layer 3 \nMode : Joint stereo \nMode extension : MS Stereo \nCodec ID : 55 \nCodec ID/Hint : MP3 \nDuration : 21mn 22s \nBit rate mode : Variable \nBit rate : 128 Kbps \nChannel(s) : 2 channels \nSampling rate : 48.0 KHz \nCompression mode : Lossy \nStream size : 20.1 MiB (11%)\n\nBy DwzRG\n\nMore AT: &lt;a href=&quot; http://directwrz.com/&quot; rel=&quot;nofollow&quot; target=&quot;_NEW&quot;&gt; http://directwrz.com/&lt;/a&gt;","torrent":{"xt":"urn:btih:526ce6fc41a0349bc20b11aff2d80bba500a35a2","amp;dn":"How+I+Met+Your+Mother+S06E24+HDTV+XviD+%5BDwzRG%5D","amp;tr":["udp%3A%2F%2Ftracker.openbittorrent.com%3A80","udp%3A%2F%2Fopen.demonii.com%3A1337","udp%3A%2F%2Ftracker.coppersurfer.tk%3A6969","udp%3A%2F%2Fexodus.desync.com%3A6969"],"infoHash":"526ce6fc41a0349bc20b11aff2d80bba500a35a2","infoHashBuffer":{"type":"Buffer","data":[82,108,230,252,65,160,52,155,194,11,17,175,242,216,11,186,80,10,53,162]},"announce":[],"urlList":[]}}